<svg xmlns="http://www.w3.org/2000/svg" viewBox="0 0 313.78 228.13"><title>hopla logo 4</title><g id="Calque_2" data-name="Calque 2"><g id="Calque_4" data-name="Calque 4"><path d="M309.89,127.43c-1.44,0-3,.76-5,1.73-2.88,1.41-6.47,3.17-10.19,2.5-5.59-1-12.3-6.3-13.9-15.58.11-1.51.15-3,.14-4.55-.11-13.28-5-25-13-31.21a20.11,20.11,0,0,0-17.36-4c-15,3.66-18.28,22-17.94,31.17a1.42,1.42,0,0,0,.08.41c.39,1.19,1.87,5.14,4.36,5.86a3.05,3.05,0,0,0,2.85-.64c1.19-1,1.46-3.06,1.95-6.87.61-4.73,1.45-11.21,4.48-15.94a10.28,10.28,0,0,1,9.44-4.91c5.26.31,10.11,4.28,13.31,10.88,6.3,13,1.79,30.2-6,38.68a8.59,8.59,0,0,1-8.22,3c-4.69-.91-9.11-5.49-11.56-12-2-5.31-3.67-5.86-4.76-5.79s-2.09,1-2.57,2.88c-1.37,5.23-1,8.13-.72,9.35-.85,2.35-5.48,13.73-14.75,13.73h-.3c-4-.11-7.74-2.83-8.44-6.21-.76-3.76-1.1-29.07-1.25-40.94,10.58-4.85,25-16.56,35.66-44.72,11.57-30.68.74-43.74-4.45-47.93C234,.11,223.14-.13,214.05,5.74c-10.91,7-11,39-11.06,87.43a80.93,80.93,0,0,1-11.33.25c-3.57-.29-7.2-1-9.84-1.43a30.52,30.52,0,0,0-4.57-.65,19.38,19.38,0,0,0-9.21,0c-13.95,3.42-16,17.45-17.62,28.72-.2,1.43-.4,2.83-.62,4.16a46.58,46.58,0,0,1-3.76,3.62c-.84-9.94-4.46-18.24-10.11-23.07a20.19,20.19,0,0,0-16.18-4.53c-7.71,1-13.53,4.41-17.29,10.14-6,9.11-5.22,22.23-2.78,30.71a9,9,0,0,0,3.42,4.78H103a3,3,0,0,0-3.22,2.32c-.85,2.83.8,10.21,1.28,12.22-.15,1.31-1.2,7.85-7.57,8h-.22c-4.51,0-5.46-2.59-5.77-8-.06-1,0-2.67,0-4.81.29-10.17.88-31.32-8.52-41.22a17,17,0,0,0-10.15-5.23,77.8,77.8,0,0,0,14.38-27c10.24-32.81-3.54-45.75-8-48.93-7-5-16-5.21-22.3-.55-9.41,6.92-13.49,34.14-13.23,88.17a15.37,15.37,0,0,1-7.66.79c-13.18-2.46-17.34-10.14-19.83-14.74l-.51-.92c-1.63-2.93-5.54-3.64-7.28-3.23a3.8,3.8,0,0,0-2.66,2.76c-.71,2.26-.22,5.49,1,6.92l.62.7C6.89,117.09,17.24,129,30.1,130a29.78,29.78,0,0,0,9.73-1.2c0,6-.09,12.29-.21,18.87-.22,11.54-.44,23.47.06,36.23a1.5,1.5,0,0,0,.93,1.33,7.16,7.16,0,0,0,6.93-1.08,1.52,1.52,0,0,0,.55-1.14c0-.21.28-21.19,0-47.94,1.57-12.37,11.29-18.11,17.42-18.11h.06a10.2,10.2,0,0,1,7.86,3.5c7.76,8.51,6.82,29.82,6.06,38.58-.51,5.86,1,10.78,4.17,13.85,2.73,2.62,6.53,3.7,11,3.12a18.48,18.48,0,0,0,12.74-8.06c2.26,1.61,7.2,4.07,15.64,3.3,9.85-.89,16.21-7.63,20.62-21.85a55.82,55.82,0,0,0,2.23-10.9c4.9-3.52,10.69-7.81,11.75-9.14.72-.93,1-2.59,1.41-6.28.61-5,1.55-12.65,4.79-17.7a10.26,10.26,0,0,1,9.42-4.91c5.26.31,10.12,4.28,13.32,10.89,6.49,13.39,2.83,29.75-3.9,38.34a8.83,8.83,0,0,1-8.67,3.2c-5.63-.87-10.81-5.53-13.2-11.88-1.35-3.55-2.56-5.75-4.47-5.75h0c-1.82,0-2.57,2-2.82,2.68-2.25,5.94-.54,10.06.17,11.38,0,5.22-.34,58.28-.34,68.57,0,.66,0,1.32,0,2-.1,2.42-.19,4.51,1.07,5.82a3.37,3.37,0,0,0,4.77,0c2.4-2.46,2.38-9.32,2.35-10.64V157.75c2.79,2.1,7.58,4.84,13.14,4.45,2.49-.18,8.62-2,14-7.43,4.53-4.58,9.9-13.19,9.78-28.23-.09-8.94-2.31-17.2-6.31-23.61A52.33,52.33,0,0,0,203,101.62c.09,12.85.56,34.93.75,38.82.14,3,2.11,6.6,5.16,9.28A16.4,16.4,0,0,0,221.05,154c11.73-.94,17.54-10.2,19.6-14.43,3,2.74,9.92,8.09,16.51,7.62,3.69-.26,14.81-4,20.45-17,3,4.21,10,12,19.41,10.36,9.6-1.7,15.53-7.73,15.25-11A2.26,2.26,0,0,0,309.89,127.43Zm-80.44-56.5c-4.34,6.7-9.68,14.93-19,19.72-.19-28.48-.17-69.53,11.3-78.37a7.73,7.73,0,0,1,4.9-1.7,10.43,10.43,0,0,1,2.78.4,14.82,14.82,0,0,1,10.42,9.73c5.5,14.79-3.39,39.76-8.4,47.15C230.82,68.82,230.16,69.85,229.45,70.93Zm-109.3,92.58c-3,0-7.07-.9-9.51-3.42a7.47,7.47,0,0,1-2-5.68.87.87,0,0,0,0-.23,11.77,11.77,0,0,0-2.69-6.75c7.24,2.89,20,1.3,31-3.69C134.23,155.52,127.58,163.51,120.15,163.51ZM138,133.63c-9.92,6-20.32,8.55-26,6.39a6.62,6.62,0,0,1-4.27-4.48c-2.14-7-1.29-14.88,2.21-20.45,2.28-3.62,5.46-5.91,8.94-6.45a22,22,0,0,1,3.35-.27,13.5,13.5,0,0,1,9.08,3.1c4.44,3.79,6.71,11,6.74,21.56ZM53,113a26.17,26.17,0,0,0-4,3.05l-1,.69c.24-26.61,2.15-69.13,11.66-76.39a4.23,4.23,0,0,1,2.59-1,4.63,4.63,0,0,1,1.2.17c5.76,1.55,9.73,5,11.79,10.13,6.09,15.25-5.2,41.57-10,49.42A59.8,59.8,0,0,1,53,113Z" style="fill:#33284d"/></g><g id="Calque_7" data-name="Calque 7"><path d="M309.89,127.43c-1.44,0-3,.76-5,1.73-2.88,1.41-6.47,3.17-10.19,2.5-5.59-1-12.3-6.3-13.9-15.58.11-1.51.15-3,.14-4.55-.11-13.28-5-25-13-31.21a20.11,20.11,0,0,0-17.36-4c-15,3.66-18.28,22-17.94,31.17a1.42,1.42,0,0,0,.08.41c.39,1.19,1.87,5.14,4.36,5.86a3.05,3.05,0,0,0,2.85-.64c1.19-1,1.46-3.06,1.95-6.87.61-4.73,1.45-11.21,4.48-15.94a10.28,10.28,0,0,1,9.44-4.91c5.26.31,10.11,4.28,13.31,10.88,6.3,13,1.79,30.2-6,38.68a8.59,8.59,0,0,1-8.22,3c-4.69-.91-9.11-5.49-11.56-12-2-5.31-3.67-5.86-4.76-5.79s-2.09,1-2.57,2.88c-1.37,5.23-1,8.13-.72,9.35-.85,2.35-5.48,13.73-14.75,13.73h-.3c-4-.11-7.74-2.83-8.44-6.21-.76-3.76-1.1-29.07-1.25-40.94,10.58-4.85,25-16.56,35.66-44.72,11.57-30.68.74-43.74-4.45-47.93C234,.11,223.14-.13,214.05,5.74c-10.91,7-11,39-11.06,87.43a80.93,80.93,0,0,1-11.33.25c-3.57-.29-7.2-1-9.84-1.43a30.52,30.52,0,0,0-4.57-.65,19.38,19.38,0,0,0-9.21,0c-13.95,3.42-16,17.45-17.62,28.72-.2,1.43-.4,2.83-.62,4.16a46.58,46.58,0,0,1-3.76,3.62c-.84-9.94-4.46-18.24-10.11-23.07a20.19,20.19,0,0,0-16.18-4.53c-7.71,1-13.53,4.41-17.29,10.14-6,9.11-5.22,22.23-2.78,30.71a9,9,0,0,0,3.42,4.78H103a3,3,0,0,0-3.22,2.32c-.85,2.83.8,10.21,1.28,12.22-.15,1.31-1.2,7.85-7.57,8h-.22c-4.51,0-5.46-2.59-5.77-8-.06-1,0-2.67,0-4.81.29-10.17.88-31.32-8.52-41.22a17,17,0,0,0-10.15-5.23,77.8,77.8,0,0,0,14.38-27c10.24-32.81-3.54-45.75-8-48.93-7-5-16-5.21-22.3-.55-9.41,6.92-13.49,34.14-13.23,88.17a15.37,15.37,0,0,1-7.66.79c-13.18-2.46-17.34-10.14-19.83-14.74l-.51-.92c-1.63-2.93-5.54-3.64-7.28-3.23a3.8,3.8,0,0,0-2.66,2.76c-.71,2.26-.22,5.49,1,6.92l.62.7C6.89,117.09,17.24,129,30.1,130a29.78,29.78,0,0,0,9.73-1.2c0,6-.09,12.29-.21,18.87-.22,11.54-.44,23.47.06,36.23a1.5,1.5,0,0,0,.93,1.33,7.16,7.16,0,0,0,6.93-1.08,1.52,1.52,0,0,0,.55-1.14c0-.21.28-21.19,0-47.94,1.57-12.37,11.29-18.11,17.42-18.11h.06a10.2,10.2,0,0,1,7.86,3.5c7.76,8.51,6.82,29.82,6.06,38.58-.51,5.86,1,10.78,4.17,13.85,2.73,2.62,6.53,3.7,11,3.12a18.48,18.48,0,0,0,12.74-8.06c2.26,1.61,7.2,4.07,15.64,3.3,9.85-.89,16.21-7.63,20.62-21.85a55.82,55.82,0,0,0,2.23-10.9c4.9-3.52,10.69-7.81,11.75-9.14.72-.93,1-2.59,1.41-6.28.61-5,1.55-12.65,4.79-17.7a10.26,10.26,0,0,1,9.42-4.91c5.26.31,10.12,4.28,13.32,10.89,6.49,13.39,2.83,29.75-3.9,38.34a8.83,8.83,0,0,1-8.67,3.2c-5.63-.87-10.81-5.53-13.2-11.88-1.35-3.55-2.56-5.75-4.47-5.75h0c-1.82,0-2.57,2-2.82,2.68-2.25,5.94-.54,10.06.17,11.38,0,5.22-.34,58.28-.34,68.57,0,.66,0,1.32,0,2-.1,2.42-.19,4.51,1.07,5.82a3.37,3.37,0,0,0,4.77,0c2.4-2.46,2.38-9.32,2.35-10.64V157.75c2.79,2.1,7.58,4.84,13.14,4.45,2.49-.18,8.62-2,14-7.43,4.53-4.58,9.9-13.19,9.78-28.23-.09-8.94-2.31-17.2-6.31-23.61A52.33,52.33,0,0,0,203,101.62c.09,12.85.56,34.93.75,38.82.14,3,2.11,6.6,5.16,9.28A16.4,16.4,0,0,0,221.05,154c11.73-.94,17.54-10.2,19.6-14.43,3,2.74,9.92,8.09,16.51,7.62,3.69-.26,14.81-4,20.45-17,3,4.21,10,12,19.41,10.36,9.6-1.7,15.53-7.73,15.25-11A2.26,2.26,0,0,0,309.89,127.43Zm-80.44-56.5c-4.34,6.7-9.68,14.93-19,19.72-.19-28.48-.17-69.53,11.3-78.37a7.73,7.73,0,0,1,4.9-1.7,10.43,10.43,0,0,1,2.78.4,14.82,14.82,0,0,1,10.42,9.73c5.5,14.79-3.39,39.76-8.4,47.15C230.82,68.82,230.16,69.85,229.45,70.93Zm-109.3,92.58c-3,0-7.07-.9-9.51-3.42a7.47,7.47,0,0,1-2-5.68.87.87,0,0,0,0-.23,11.77,11.77,0,0,0-2.69-6.75c7.24,2.89,20,1.3,31-3.69C134.23,155.52,127.58,163.51,120.15,163.51ZM138,133.63c-9.92,6-20.32,8.55-26,6.39a6.62,6.62,0,0,1-4.27-4.48c-2.14-7-1.29-14.88,2.21-20.45,2.28-3.62,5.46-5.91,8.94-6.45a22,22,0,0,1,3.35-.27,13.5,13.5,0,0,1,9.08,3.1c4.44,3.79,6.71,11,6.74,21.56ZM53,113a26.17,26.17,0,0,0-4,3.05l-1,.69c.24-26.61,2.15-69.13,11.66-76.39a4.23,4.23,0,0,1,2.59-1,4.63,4.63,0,0,1,1.2.17c5.76,1.55,9.73,5,11.79,10.13,6.09,15.25-5.2,41.57-10,49.42A59.8,59.8,0,0,1,53,113Z" style="fill:none;stroke:#33284d;stroke-linecap:round;stroke-linejoin:round;stroke-width:3px"/><path d="M53,113s7.55-5.49,15.9-3.79" style="fill:none;stroke:#33284d;stroke-linecap:round;stroke-linejoin:round;stroke-width:3px"/><line x1="39.77" y1="120.89" x2="39.83" y2="128.78" style="fill:none;stroke:#33284d;stroke-linecap:round;stroke-linejoin:round;stroke-width:3px"/><path d="M138,133.63a52.65,52.65,0,0,0,8-5.76" style="fill:none;stroke:#33284d;stroke-linecap:round;stroke-linejoin:round;stroke-width:3px"/><path d="M136.88,143.74a41.17,41.17,0,0,0,9-5.26" style="fill:none;stroke:#33284d;stroke-linecap:round;stroke-linejoin:round;stroke-width:3px"/><line x1="202.99" y1="93.17" x2="203" y2="101.62" style="fill:none;stroke:#33284d;stroke-linecap:round;stroke-linejoin:round;stroke-width:3px"/><line x1="210.47" y1="90.65" x2="210.55" y2="99.01" style="fill:none;stroke:#33284d;stroke-linecap:round;stroke-linejoin:round;stroke-width:3px"/></g></g></svg>